<?xml version="1.0" encoding="utf-8"?>
<!-- Generator: Adobe Illustrator 27.5.0, SVG Export Plug-In . SVG Version: 6.00 Build 0)  -->
<svg version="1.1" id="Layer_1" xmlns="http://www.w3.org/2000/svg" xmlns:xlink="http://www.w3.org/1999/xlink" x="0px" y="0px"
	 viewBox="0 0 165.8 26" style="enable-background:new 0 0 165.8 26;" xml:space="preserve">
<style type="text/css">
	.st0{fill:#FFFFFF;}
</style>
<g>
	<g>
		<path class="st0" d="M31.5,15.8c-2.7,0-5-2.2-5-5c0-2.7,2.2-5,5-5c2.7,0,5,2.2,5,5C36.5,13.5,34.3,15.8,31.5,15.8z M31.5,8.3
			c-1.4,0-2.5,1.1-2.5,2.5s1.1,2.5,2.5,2.5c1.4,0,2.5-1.1,2.5-2.5S32.9,8.3,31.5,8.3z"/>
		<path class="st0" d="M40.5,26H22.4l2.1-7.8h4L27.6,22h9.9l5-18H24.6l-6.8,22H0l1-6.9c0.1-0.8,0.5-1.5,1-2.1L12.4,6.4L13.1,4H4.7
			l0.8-2.4C5.8,0.6,6.7,0,7.7,0h7.2c1.5,0,2.6,1.5,2.2,3l-1.2,3.8c-0.3,0.9-0.8,1.7-1.4,2.4L5.1,19.4L4.7,22H15l6.8-22h22.9
			c0.8,0,1.6,0.4,2,1.1l0,0C47,1.7,47.2,2.5,47,3.2L40.5,26z"/>
	</g>
	<g>
		<path class="st0" d="M56,16.3c5.7-3.4,6-4.3,6-6.8V7.9h-5.6V6.4h7.4v3.2c0,3.3-0.2,4.3-6.8,8.2L56,16.3z M71.2,12.5h-2.6v8.9h-1.8
			V4.8h1.8v6.1h2.6C71.2,10.9,71.2,12.5,71.2,12.5z"/>
		<path class="st0" d="M72.4,9.3c0-1.6,1.3-3.8,4.2-3.8s4.2,2.2,4.2,3.8v0.9c0,1.6-1.3,3.8-4.2,3.8s-4.2-2.2-4.2-3.8V9.3z M79,9.4
			C79,8.2,78.3,7,76.6,7s-2.4,1.2-2.4,2.3v0.8c0,1.1,0.7,2.3,2.4,2.3c1.7,0,2.4-1.2,2.4-2.3V9.4z M76.9,19.7h8.9v1.5H75.1v-5.5h1.8
			V19.7z M83.7,16.7V4.8h1.8v11.9H83.7z"/>
		<path class="st0" d="M95.5,8.9h1.8V5h1.7v11.2h-1.7v-5.8h-1.8c-0.2,1.8-1.5,3.3-3.7,3.3c-2.4,0-3.7-1.8-3.7-3.7V9.3
			c0-1.9,1.3-3.7,3.7-3.7C94,5.6,95.3,7.1,95.5,8.9z M93.8,10V9.4c0-1.2-0.7-2.3-2-2.3s-2,1-2,2.3V10c0,1.2,0.7,2.3,2,2.3
			S93.8,11.2,93.8,10z M93.2,19.7h9.2v1.5h-11v-5.5h1.8V19.7z M100.3,4.8h1.7v11.8h-1.7V4.8z"/>
		<path class="st0" d="M109.7,13.2c-0.2,0.4-0.5,0.8-1.1,1.4c-0.7,0.8-1.6,1.7-2.8,2.8l-1.2-1.2c1.1-1,2-1.9,2.8-2.8
			c1.2-1.3,1.4-2,1.4-3.3V7.9h-3.6V6.3h8.8v1.5h-3.5v2.4c0,1.4,0.2,2,1.5,3.4c0.8,0.9,1.5,1.6,2.6,2.5l-1.2,1.2
			c-1.2-1.1-2-1.9-2.7-2.6C110.3,14.1,109.9,13.6,109.7,13.2L109.7,13.2L109.7,13.2z M116.3,21.4V4.8h1.8v16.6H116.3z"/>
		<path class="st0" d="M122.8,6.2v9.2h1.6c2,0,3.8-0.1,5.7-0.4l0.2,1.6c-2.1,0.4-3.6,0.5-6.4,0.5H121V6.2H122.8z M131.8,21.4V4.8
			h1.8v16.6H131.8z"/>
		<path class="st0" d="M147.8,21.4v-9.2h-3.2v0.4c0,3.2-1.8,4.8-4.2,4.8s-4.2-1.6-4.2-4.8v-1.9c0-3.2,1.8-4.8,4.2-4.8
			c2.4,0,4.1,1.6,4.2,4.7h3.2V4.8h1.8v16.6H147.8z M142.9,12.4V11c0-2.5-1.2-3.4-2.5-3.4S138,8.5,138,11v1.4c0,2.5,1.2,3.4,2.5,3.4
			C141.8,15.8,142.9,14.9,142.9,12.4z"/>
		<path class="st0" d="M153,14v-5h5.6V7.1H153V5.6h7.4v4.9h-5.6v2h1.5c2,0,3.6-0.1,5.9-0.3l0.2,1.5c-2,0.2-3.6,0.4-6.2,0.4L153,14
			L153,14z M165.8,18.2v0.7c0,1.7-1.9,3-5.1,3c-3.2,0-5.1-1.3-5.1-3v-0.7c0-1.7,1.9-3,5.1-3C163.9,15.2,165.8,16.5,165.8,18.2z
			 M164,18.8v-0.5c0-0.8-1.3-1.6-3.4-1.6s-3.4,0.8-3.4,1.6v0.5c0,0.8,1.3,1.6,3.4,1.6S164,19.6,164,18.8z M163.9,15V4.8h1.8V15
			C165.7,15,163.9,15,163.9,15z"/>
	</g>
</g>
</svg>
