<?xml version="1.0" encoding="utf-8"?>
<!-- Generator: Adobe Illustrator 27.5.0, SVG Export Plug-In . SVG Version: 6.00 Build 0)  -->
<svg version="1.1" id="Layer_1" xmlns="http://www.w3.org/2000/svg" xmlns:xlink="http://www.w3.org/1999/xlink" x="0px" y="0px"
	 viewBox="0 0 165.77 26.04" style="enable-background:new 0 0 165.77 26.04;" xml:space="preserve">
<style type="text/css">
	.st0{fill:#EA3837;}
	.st1{fill:#424195;}
	.st2{fill:#322F31;}
</style>
<g>
	<g>
		<path class="st0" d="M31.55,15.75c-2.74,0-4.96-2.22-4.96-4.96c0-2.73,2.22-4.96,4.96-4.96c2.73,0,4.96,2.22,4.96,4.96
			C36.5,13.53,34.28,15.75,31.55,15.75z M31.55,8.33c-1.36,0-2.46,1.1-2.46,2.46s1.1,2.46,2.46,2.46c1.36,0,2.46-1.1,2.46-2.46
			S32.9,8.33,31.55,8.33z"/>
		<path class="st1" d="M40.52,26.04H22.42l2.15-7.83h4.05l-1.06,3.83h9.95L42.55,4H24.6l-6.76,22.04H0l1.05-6.93
			c0.12-0.78,0.48-1.51,1.03-2.08L12.37,6.4L13.08,4H4.71l0.81-2.44C5.83,0.63,6.71,0,7.69,0h7.22c1.54,0,2.63,1.5,2.16,2.97
			l-1.24,3.84c-0.29,0.88-0.76,1.7-1.39,2.38L5.05,19.41l-0.4,2.64h10.31L21.72,0l22.85,0c0.82,0,1.59,0.4,2.05,1.08v0
			c0.42,0.61,0.55,1.38,0.35,2.09L40.52,26.04z"/>
	</g>
	<g>
		<path class="st2" d="M55.95,16.34c5.74-3.37,5.96-4.29,5.96-6.84v-1.6h-5.64V6.36h7.4v3.15c0,3.28-0.22,4.27-6.79,8.25
			L55.95,16.34z M71.16,12.5H68.6v8.91h-1.78V4.81h1.78v6.14h2.56V12.5z"/>
		<path class="st2" d="M72.42,9.28c0-1.64,1.35-3.8,4.16-3.8s4.16,2.16,4.16,3.8v0.94c0,1.64-1.35,3.8-4.16,3.8s-4.16-2.16-4.16-3.8
			V9.28z M79.02,9.35c0-1.1-0.72-2.32-2.45-2.32s-2.45,1.22-2.45,2.32v0.79c0,1.1,0.74,2.32,2.45,2.32c1.73,0,2.45-1.22,2.45-2.32
			V9.35z M76.88,19.69h8.93v1.55H75.1v-5.51h1.78V19.69z M83.7,16.66V4.81h1.76v11.85H83.7z"/>
		<path class="st2" d="M95.46,8.92h1.76V5.03h1.69v11.18h-1.69v-5.78h-1.76c-0.16,1.78-1.46,3.33-3.69,3.33
			c-2.41,0-3.71-1.76-3.71-3.69V9.28c0-1.94,1.3-3.69,3.71-3.69C94,5.59,95.3,7.14,95.46,8.92z M93.78,9.96V9.39
			c0-1.21-0.65-2.27-2.02-2.27s-2.02,1.03-2.02,2.27v0.58c0,1.21,0.65,2.29,2.02,2.29S93.78,11.17,93.78,9.96z M93.17,19.69h9.18
			v1.55H91.39v-5.49h1.78V19.69z M100.34,4.81h1.71v11.79h-1.71V4.81z"/>
		<path class="st2" d="M109.69,13.24c-0.16,0.4-0.49,0.79-1.06,1.42c-0.74,0.81-1.64,1.73-2.85,2.84l-1.17-1.21
			c1.08-0.97,1.96-1.85,2.77-2.75c1.19-1.31,1.39-2,1.39-3.33V7.86h-3.57V6.31h8.84v1.55h-3.47v2.36c0,1.42,0.2,1.96,1.48,3.35
			c0.77,0.85,1.53,1.55,2.59,2.48l-1.17,1.21c-1.22-1.12-1.98-1.87-2.67-2.61c-0.5-0.54-0.95-1.04-1.1-1.4H109.69z M116.3,21.41
			V4.81h1.78v16.6H116.3z"/>
		<path class="st2" d="M122.82,6.18v9.22h1.6c1.98,0,3.83-0.13,5.67-0.45l0.2,1.55c-2.11,0.38-3.62,0.47-6.37,0.47h-2.9V6.18H122.82
			z M131.75,21.41V4.81h1.78v16.6H131.75z"/>
		<path class="st2" d="M147.84,21.41v-9.2h-3.21v0.41c0,3.17-1.75,4.79-4.18,4.79s-4.18-1.62-4.18-4.79v-1.87
			c0-3.19,1.75-4.81,4.18-4.81c2.39,0,4.14,1.6,4.18,4.7h3.21V4.81h1.78v16.6H147.84z M142.92,12.38v-1.37
			c0-2.54-1.17-3.44-2.47-3.44c-1.3,0-2.47,0.9-2.47,3.44v1.37c0,2.54,1.17,3.44,2.47,3.44C141.75,15.81,142.92,14.91,142.92,12.38z
			"/>
		<path class="st2" d="M153.02,14.03V9.06h5.64V7.12h-5.69V5.61h7.45v4.93h-5.64v1.98h1.51c1.98,0,3.64-0.05,5.87-0.32l0.16,1.48
			c-2.03,0.25-3.58,0.36-6.21,0.36H153.02z M165.77,18.17v0.72c0,1.69-1.87,2.99-5.1,2.99c-3.22,0-5.1-1.3-5.1-2.99v-0.72
			c0-1.69,1.87-2.99,5.1-2.99C163.89,15.18,165.77,16.48,165.77,18.17z M164.02,18.79v-0.5c0-0.83-1.26-1.64-3.35-1.64
			s-3.35,0.81-3.35,1.64v0.5c0,0.83,1.26,1.64,3.35,1.64S164.02,19.61,164.02,18.79z M163.93,14.97V4.81h1.76v10.16H163.93z"/>
	</g>
</g>
</svg>
