<svg width="150" height="48" viewBox="0 0 150 48" fill="none" xmlns="http://www.w3.org/2000/svg">
<path fill-rule="evenodd" clip-rule="evenodd" d="M48.0331 0V48H0V0H48.0331ZM20.3217 13.0135H12.0822V34.9846H20.2109V23.6123L28.007 34.9865H36.2447V13.0154H28.1178V24.3877L20.3217 13.0154V13.0135Z" fill="#00C73C"/>
<path fill-rule="evenodd" clip-rule="evenodd" d="M87.0138 13.2148V7.38462C92.2642 7.896 97.0269 11.0714 97.0269 17.7692V36.9249H90.5553V17.7692C90.5553 15.1717 89.2381 13.6449 87.012 13.2148H87.0138ZM69.6739 17.3871C71.0964 15.7495 73.2117 14.7563 76.1029 14.7563C81.7579 14.7563 86.4189 19.7188 86.4189 26.1434C86.4189 32.568 81.756 37.5286 76.1029 37.5286C73.2135 37.5286 71.0964 36.5372 69.6739 34.8978V36.9249H63.2005V8.17292H69.6739V17.3871ZM69.2508 26.1434C69.2508 29.6455 71.5878 31.8388 74.8097 31.8388C78.0316 31.8388 80.3668 29.6455 80.3668 26.1434C80.3668 22.6431 78.0316 20.4498 74.8097 20.4498C71.5878 20.4498 69.2508 22.6431 69.2508 26.1434ZM100.862 26.1434C100.862 19.7169 105.954 14.7563 112.298 14.7563C118.64 14.7563 123.733 19.7169 123.733 26.1415C123.733 32.5662 118.642 37.5268 112.298 37.5268C105.955 37.5268 100.862 32.568 100.862 26.1415V26.1434ZM106.927 26.1434C106.927 29.4572 109.262 31.6505 112.298 31.6505C115.333 31.6505 117.668 29.4535 117.668 26.1415C117.668 22.8295 115.333 20.6363 112.298 20.6363C109.262 20.6363 106.927 22.8277 106.927 26.1415V26.1434ZM149.998 15.3618H143.698V17.5588C142.276 15.792 140.201 14.7563 137.399 14.7563C131.269 14.7563 126.782 19.7594 126.782 25.7114C126.782 31.6634 131.271 36.6646 137.397 36.6646C140.201 36.6646 142.274 35.6308 143.698 33.8603V35.8449C143.698 38.9077 141.842 40.4603 138.821 40.4603H138.607V46.152C144.349 46.152 150 43.0892 150 35.8449L149.998 15.3618ZM138.478 31.1262C135.161 31.1262 132.828 28.9329 132.828 25.7132C132.828 22.4935 135.163 20.3003 138.478 20.3003C141.794 20.3003 144.129 22.4935 144.129 25.7132C144.129 28.9329 141.794 31.1262 138.478 31.1262Z" fill="#00C73C"/>
</svg>
