<svg width="865" height="478" viewBox="0 0 865 478" fill="none" xmlns="http://www.w3.org/2000/svg">
<path d="M579.889 289.113C529.527 289.113 488.724 248.362 488.724 198.065C488.724 147.952 529.527 107.018 579.889 107.018C630.066 107.018 671.053 147.769 671.053 198.065C670.87 248.362 630.066 289.113 579.889 289.113ZM579.889 152.909C554.892 152.909 534.674 173.101 534.674 198.065C534.674 223.03 554.892 243.222 579.889 243.222C604.885 243.222 625.103 223.03 625.103 198.065C625.103 173.101 604.702 152.909 579.889 152.909Z" fill="#F3F5F8"/>
<path d="M744.757 478H412.079L451.596 334.27H526.035L506.552 404.574H689.433L782.069 73.4255H452.148L327.899 478H0L19.299 350.79C21.5046 336.472 28.1214 323.072 38.2304 312.609L227.36 117.481L240.41 73.4255H86.5698L101.458 28.6359C107.155 11.5645 123.33 0 141.342 0H274.046C302.351 0 322.385 27.5346 313.746 54.5184L290.955 125.007C285.625 141.161 276.986 156.213 265.407 168.695L92.819 356.297L85.467 404.758H274.965L399.213 0H819.196C834.268 0 848.42 7.34255 856.875 19.8249C864.595 31.0223 866.984 45.1567 863.308 58.1897L744.757 478Z" fill="#F3F5F8"/>
</svg>
