<svg width="908" height="502" viewBox="0 0 908 502" fill="none" xmlns="http://www.w3.org/2000/svg">
<path d="M608.715 303.629C555.851 303.629 513.019 260.832 513.019 208.01C513.019 155.381 555.851 112.391 608.715 112.391C661.387 112.391 704.412 155.188 704.412 208.01C704.219 260.832 661.387 303.629 608.715 303.629ZM608.715 160.586C582.476 160.586 561.253 181.792 561.253 208.01C561.253 234.228 582.476 255.434 608.715 255.434C634.955 255.434 656.178 234.228 656.178 208.01C656.178 181.792 634.762 160.586 608.715 160.586Z" fill="#F9FAFD"/>
<path d="M781.78 502H432.564L474.046 351.053H552.185L531.734 424.888H723.706L820.946 77.1121H474.624L344.199 502H0L20.2584 368.403C22.5736 353.366 29.5193 339.293 40.1308 328.305L238.663 123.379L252.361 77.1121H90.8732L106.501 30.0737C112.482 12.1452 129.461 0 148.368 0H287.669C317.381 0 338.411 28.917 329.343 57.2558L305.419 131.283C299.824 148.248 290.756 164.056 278.601 177.165L97.4331 374.187L89.7156 425.081H288.633L419.059 0H859.919C875.74 0 890.596 7.71121 899.471 20.8203C907.575 32.5799 910.083 47.424 906.224 61.1114L781.78 502Z" fill="#F9FAFD"/>
</svg>
