<svg width="50" height="28" viewBox="0 0 50 28" fill="none" xmlns="http://www.w3.org/2000/svg">
<path d="M33.5196 16.7071C30.6085 16.7071 28.2499 14.3522 28.2499 11.4457C28.2499 8.54978 30.6085 6.18427 33.5196 6.18427C36.42 6.18427 38.7892 8.53917 38.7892 11.4457C38.7786 14.3522 36.42 16.7071 33.5196 16.7071ZM33.5196 8.83619C32.0747 8.83619 30.906 10.003 30.906 11.4457C30.906 12.8883 32.0747 14.0552 33.5196 14.0552C34.9645 14.0552 36.1331 12.8883 36.1331 11.4457C36.1331 10.003 34.9538 8.83619 33.5196 8.83619Z" fill="#8288C4"/>
<path d="M43.0495 27.6224H23.8196L26.1038 19.3166H30.4067L29.2805 23.3793H39.8516L45.2063 4.24307H26.1357L18.9537 27.6224H0L1.11555 20.2713C1.24304 19.4439 1.62551 18.6695 2.20985 18.0649L13.1422 6.78891L13.8965 4.24307H5.00403L5.8646 1.6548C6.19395 0.668283 7.12889 0 8.17006 0H15.8408C17.4769 0 18.635 1.59115 18.1356 3.15048L16.8182 7.22382C16.5101 8.1573 16.0108 9.02713 15.3414 9.74845L5.36526 20.5895L4.94029 23.3899H15.8939L23.0759 0H47.3524C48.2236 0 49.0416 0.424307 49.5303 1.14563C49.9766 1.7927 50.1147 2.60949 49.9022 3.36263L43.0495 27.6224Z" fill="#8288C4"/>
</svg>
